# AST/ASF file generated using VICON BodyLanguage
# -----------------------------------------------
:version 1.10
:name VICON
:units
  mass 1.0
  length 0.45
  angle deg
:documentation
   .ast/.asf automatically generated from VICON data using
   VICON BodyBuilder and BodyLanguage model FoxedUp or BRILLIANT.MOD
:root
   order TX TY TZ RX RY RZ
   axis XYZ
   position 0 0 0  
   orientation 0 0 0 
:bonedata
  begin
     id 1 
     name lhipjoint
     direction 0.660183 -0.676772 0.325788 
     length 2.75133 
     axis 0 0 0  XYZ
  end
  begin
     id 2 
     name lfemur
     direction 0.34202 -0.939693 0  
     length 7.70317  
     axis 0 0 20  XYZ
    dof rx ry rz
    limits (-160.0 20.0)
           (-70.0 70.0)
           (-60.0 70.0)
  end
  begin
     id 3 
     name ltibia
     direction 0.342105 -0.939662 0   
     length 7.18701   
     axis 0 0 20   XYZ
    dof rx
    limits (-10.0 170.0)
  end
  begin
     id 4 
     name lfoot
     direction 0.14163 -0.389126 0.910232   
     length 2.41719   
     axis -90 7.62852e-016 20   XYZ
    dof rx rz
    limits (-45.0 90.0)
           (-70.0 20.0)
  end
  begin
     id 5 
     name ltoes
     direction 1.53533e-011 -4.21926e-011 1   
     length 1.18611   
     axis -90 7.62852e-016 20   XYZ
    dof rx
    limits (-90.0 20.0)
  end
  begin
     id 6 
     name rhipjoint
     direction -0.6658 -0.67229 0.323631   
     length 2.76968  
     axis 0 0 0  XYZ 
  end
  begin
     id 7 
     name rfemur
     direction -0.34202 -0.939693 0   
     length 7.92547   
     axis 0 0 -20   XYZ
    dof rx ry rz
    limits (-160.0 20.0)
           (-70.0 70.0)
           (-70.0 60.0)
  end
  begin
     id 8 
     name rtibia
     direction -0.342022 -0.939692 0   
     length 7.22641   
     axis 0 0 -20   XYZ
    dof rx
    limits (-10.0 170.0)
 end
 begin
     id 9 
     name rfoot
     direction -0.105675 -0.29034 0.951071   
     length 2.48149  
     axis -90 -7.62852e-016 -20   XYZ
    dof rx rz
    limits (-45.0 90.0)
           (-20.0 70.0)
  end
  begin
     id 10 
     name rtoes
     direction -1.5349e-011 -4.21859e-011 1   
     length 1.23343   
     axis -90 -7.62852e-016 -20   XYZ
    dof rx
    limits (-90.0 20.0)
  end
  begin
     id 11 
     name lowerback
     direction 0.0104173 0.993624 -0.112266   
     length 2.00527   
     axis 0 0 0   XYZ
    dof rx ry rz
    limits (-20.0 45.0)
           (-30.0 30.0)
           (-30.0 30.0)
  end
  begin
     id 12 
     name upperback
     direction 0.00733149 0.999856 -0.0152913   
     length 2.01385   
     axis 0 0 0   XYZ
    dof rx ry rz
    limits (-20.0 45.0)
           (-30.0 30.0)
           (-30.0 30.0)
  end
  begin
     id 13 
     name thorax
     direction 0.0026304 0.999318 0.036841   
     length 2.03734   
     axis 0 0 0   XYZ
    dof rx ry rz
    limits (-20.0 45.0)
           (-30.0 30.0)
           (-30.0 30.0)
  end
  begin
     id 14 
     name lowerneck
     direction 0.0293154 0.998757 0.0403082   
     length 1.65303   
     axis 0 0 0   XYZ
    dof rx ry rz
    limits (-20.0 45.0)
           (-30.0 30.0)
           (-30.0 30.0)
  end
  begin
     id 15 
     name upperneck
     direction -0.0376619 0.998184 -0.0470083   
     length 1.60926   
     axis 0 0 0   XYZ
    dof rx ry rz
    limits (-20.0 45.0)
           (-30.0 30.0)
           (-30.0 30.0)
  end
  begin
     id 16
     name head
     direction -0.0170133 0.999635 -0.0209778  
     length 1.73625  
     axis 0 0 0   XYZ
    dof rx ry rz
    limits (-20.0 45.0)
           (-30.0 30.0)
           (-30.0 30.0)
  end
  begin
     id 17 
     name lclavicle
     direction 0.919857 0.39181 -0.0186333  
     length 3.75313  
     axis 0 0 0   XYZ
    dof ry rz
    limits (-20.0 10.0)
           (0.0 20.0)
  end
  begin
     id 18 
     name lhumerus
     direction 1 -4.48988e-011 1.44029e-027   
     length 5.49313   
     axis 180 -30 -90   XYZ
    dof rx ry rz
    limits (-60.0 90.0)
           (-90.0 90.0)
           (-90.0 90.0)
  end
  begin
     id 19
     name lradius
     direction 1 -4.48924e-011 7.46281e-027   
     length 3.29037   
     axis 180 -30 -90   XYZ
    dof rx
    limits (-10.0 170.0)
  end
  begin
     id 20
     name lwrist
     direction 1 -4.48955e-011 2.19879e-026   
     length 1.64519   
     axis -1.34358e-014 90 90   XYZ
    dof ry
    limits (-180.0 0.0)
 end
  begin
     id 21 
     name lhand
     direction 1 -4.48978e-011 4.39747e-026   
     length 0.729656   
     axis -2.80598e-014 90 90   XYZ
    dof rx rz
    limits (-90.0 90.0)
           (-45.0 45.0)
  end
  begin
     id 22 
     name lfingers
     direction 1 -4.49071e-011 8.79411e-026   
     length 0.588268   
     axis -5.61193e-014 90 90   XYZ
    dof rx
    limits (0.0 90.0)
  end
  begin
     id 23
     name lthumb
     direction 0.707107 -6.34817e-011 0.707107   
     length 0.844638   
     axis -90 45 -9.86923e-015   XYZ
    dof rx rz
    limits (-45.0 45.0)
           (-45.0 45.0)
  end
  begin
     id 24 
     name rclavicle
     direction -0.919898 0.388279 0.0550233   
     length 3.7171  
     axis 0 0 0   XYZ 
    dof ry rz
    limits (-10.0 20.0)
           (-20.0 0.0)
  end
  begin
     id 25 
     name rhumerus
     direction -1 -4.48968e-011 9.98372e-028  
     length 5.23684   
     axis 180 30 90   XYZ
    dof rx ry rz
    limits (-90.0 60.0)
           (-90.0 90.0)
           (-90.0 90.0)
  end
  begin
     id 26 
     name rradius
     direction -1 -4.48956e-011 1.01023e-026   
     length 3.38251   
     axis 180 30 90   XYZ
    dof rx
    limits (-10.0 170.0)
  end
  begin
     id 27 
     name rwrist
     direction -1 -4.4892e-011 2.19886e-026   
     length 1.69126   
     axis -1.34358e-014 -90 -90   XYZ
    dof ry
    limits (-180.0 0.0)
  end
  begin
     id 28
     name rhand
     direction -1 -4.49024e-011 4.39727e-026   
     length 0.691454   
     axis -2.80598e-014 -90 -90   XYZ
    dof rx rz
    limits (-90.0 90.0)
           (-45.0 45.0)
  end
  begin
     id 29
     name rfingers
     direction -1 -4.49097e-011 8.79388e-026   
     length 0.557468   
     axis -5.61193e-014 -90 -90   XYZ
    dof rx
    limits (0.0 90.0)
  end
  begin
     id 30
     name rthumb
     direction -0.707107 -6.34938e-011 0.707107   
     length 0.800416   
     axis -90 -45 9.86923e-015   XYZ
    dof rx rz
    limits (-45.0 45.0)
           (-45.0 45.0)
  end
:hierarchy
  begin
    root lhipjoint rhipjoint lowerback
    lhipjoint lfemur
    lfemur ltibia
    ltibia lfoot
    lfoot ltoes
    rhipjoint rfemur
    rfemur rtibia
    rtibia rfoot
    rfoot rtoes
    lowerback upperback
    upperback thorax
    thorax lowerneck lclavicle rclavicle
    lowerneck upperneck
    upperneck head
    lclavicle lhumerus
    lhumerus lradius
    lradius lwrist
    lwrist lhand lthumb
    lhand lfingers
    rclavicle rhumerus
    rhumerus rradius
    rradius rwrist
    rwrist rhand rthumb
    rhand rfingers
  end

#!OML:ASF H:\BabyWalks\Project 1\Capture day 1\Session 1\baby.ASF
:FULLY-SPECIFIED
:DEGREES
24
root -31.7981 17.5815 -1.69454 -42.0487 81.873 -42.0995
lowerback 17.0594 -1.60399 0.42949
upperback 8.39146 -1.4305 3.5937
thorax -0.517255 -0.562248 3.78707
lowerneck -2.16226 4.70024 -1.82414
upperneck 7.16781 6.70522 -3.86823
head 2.73112 3.18724 -0.720041
rclavicle -4.52235e-014 4.81059e-014
rhumerus -39.5985 22.8276 -81.9005
rradius 38.3616
rwrist 2.44982
rhand 11.4008 -20.2826
rfingers 7.12502
rthumb 36.4537 -46.4864
lclavicle -4.52235e-014 4.81059e-014
lhumerus -39.7126 4.71816 80.975
lradius 44.4367
lwrist 0.945521
lhand 6.10596 17.199
lfingers 7.12502
lthumb 31.4243 44.5187
rfemur 3.8338 0.084586 29.2101
rtibia 17.2449
rfoot -20.8207 -24.9977
rtoes 4.10344
lfemur -22.4615 3.69848 -13.0503
ltibia 35.0101
lfoot -11.1727 2.46775
ltoes 4.91543
25
root -31.7839 17.5821 -1.70032 -42.2144 81.8961 -42.3554
lowerback 17.0931 -1.6114 0.397823
upperback 8.41863 -1.44161 3.60242
thorax -0.503721 -0.568129 3.81695
lowerneck -2.39979 4.62093 -1.64123
upperneck 7.41079 6.64079 -4.21248
head 2.87878 3.14199 -0.854487
rclavicle -3.08116e-015 3.10104e-014
rhumerus -39.7242 22.8954 -81.8677
rradius 38.428
rwrist 2.26016
rhand 10.9809 -20.2199
rfingers 7.12502
rthumb 36.0561 -46.5226
lclavicle -3.08116e-015 3.10104e-014
lhumerus -39.9485 4.39795 81.0933
lradius 44.5966
lwrist 1.15503
lhand 6.11012 17.0473
lfingers 7.12502
lthumb 31.4282 44.3662
rfemur 3.81615 0.10978 29.2049
rtibia 17.1817
rfoot -20.8072 -25.0482
rtoes 4.15752
lfemur -22.5534 3.69015 -13.076
ltibia 35.0736
lfoot -11.2257 2.45655
ltoes 4.76368
26
root -31.7697 17.5829 -1.70602 -42.3599 81.9196 -42.5944
lowerback 17.1181 -1.61858 0.362538
upperback 8.44985 -1.45321 3.61111
thorax -0.481158 -0.574432 3.84865
lowerneck -2.64468 4.54446 -1.42024
upperneck 7.66027 6.58372 -4.60208
head 3.03468 3.09927 -1.0114
rclavicle -1.67973e-014 1.17283e-014
rhumerus -39.8355 22.9202 -81.8159
rradius 38.4867
rwrist 2.06399
rhand 10.4005 -20.1267
rfingers 7.12502
rthumb 35.5061 -46.5631
lclavicle -1.67973e-014 1.17283e-014
lhumerus -40.1839 4.11066 81.2079
lradius 44.7521
lwrist 1.35148
lhand 6.0769 16.8762
lfingers 7.12502
lthumb 31.3966 44.2014
rfemur 3.79608 0.133399 29.1968
rtibia 17.1156
rfoot -20.7935 -25.0965
rtoes 4.19055
lfemur -22.6461 3.69157 -13.1048
ltibia 35.1324
lfoot -11.2755 2.43984
ltoes 4.66793
27
root -31.7554 17.5839 -1.71162 -42.4687 81.9411 -42.7991
lowerback 17.1348 -1.62476 0.322363
upperback 8.48347 -1.46459 3.61895
thorax -0.451579 -0.580873 3.88194
lowerneck -2.78776 4.5026 -1.27387
upperneck 7.71853 6.55113 -4.86948
head 3.09878 3.07538 -1.12053
rclavicle 2.70347e-014 -2.18663e-015
rhumerus -39.9372 22.9066 -81.7499
rradius 38.5352
rwrist 1.87084
rhand 9.64185 -19.994
rfingers 7.12502
rthumb 34.7866 -46.5997
lclavicle 2.70347e-014 -2.18663e-015
lhumerus -40.4208 3.86128 81.3147
lradius 44.9027
lwrist 1.52831
lhand 6.00687 16.6876
lfingers 7.12502
lthumb 31.3299 44.0256
rfemur 3.7744 0.157002 29.1856
rtibia 17.0471
rfoot -20.778 -25.1394
rtoes 4.20813
lfemur -22.7379 3.70599 -13.1365
ltibia 35.1852
lfoot -11.3315 2.41951
ltoes 4.62265
28
root -31.7412 17.5851 -1.71709 -42.5536 81.9596 -42.9821
lowerback 17.1477 -1.62856 0.282081
upperback 8.51496 -1.4733 3.62374
thorax -0.42261 -0.586048 3.9115
lowerneck -2.88825 4.46959 -1.11959
upperneck 7.72273 6.52401 -5.12531
head 3.13642 3.05645 -1.22903
rclavicle 1.40143e-014 4.47266e-014
rhumerus -40.0403 22.8477 -81.6772
rradius 38.575
rwrist 1.6968
rhand 8.69693 -19.8167
rfingers 7.12502
rthumb 33.8894 -46.6249
lclavicle 1.40143e-014 4.47266e-014
lhumerus -40.6612 3.6426 81.4099
lradius 45.0473
lwrist 1.68088
lhand 5.89997 16.5035
lfingers 7.12502
lthumb 31.228 43.8613
rfemur 3.75036 0.178674 29.1735
rtibia 16.9774
rfoot -20.771 -25.1742
rtoes 4.18031
lfemur -22.8285 3.73097 -13.1678
ltibia 35.2316
lfoot -11.3926 2.39407
ltoes 4.62692
29
root -31.727 17.5866 -1.72254 -42.5647 81.9782 -43.0932
lowerback 17.1549 -1.62948 0.234658
upperback 8.54455 -1.47997 3.62349
thorax -0.392708 -0.5905 3.93925
lowerneck -2.87712 4.46828 -1.04491
upperneck 7.53446 6.51475 -5.2439
head 3.07797 3.05424 -1.28221
rclavicle -1.27222e-014 5.00937e-014
rhumerus -40.1469 22.7551 -81.602
rradius 38.6075
rwrist 1.5503
rhand 7.57826 -19.6032
rfingers 7.12502
rthumb 32.8259 -46.6399
lclavicle -1.27222e-014 5.00937e-014
lhumerus -40.9051 3.4597 81.491
lradius 45.187
lwrist 1.80434
lhand 5.75843 16.3195
lfingers 7.12502
lthumb 31.0931 43.7032
rfemur 3.72438 0.196793 29.1513
rtibia 16.9063
rfoot -20.7761 -25.1958
rtoes 4.0993
lfemur -22.9169 3.76909 -13.2077
ltibia 35.2722
lfoot -11.4528 2.3647
ltoes 4.67013
30
root -31.7129 17.5883 -1.72784 -42.505 81.993 -43.133
lowerback 17.1563 -1.62109 0.182823
upperback 8.56772 -1.47605 3.61643
thorax -0.367537 -0.589891 3.96038
lowerneck -2.75859 4.48262 -0.99227
upperneck 7.21167 6.50876 -5.28751
head 2.94946 3.06004 -1.31007
rclavicle 4.57205e-015 5.96354e-016
rhumerus -40.274 22.6124 -81.5311
rradius 38.6365
rwrist 1.4443
rhand 6.31548 -19.3648
rfingers 7.12502
rthumb 31.6239 -46.6455
lclavicle 4.57205e-015 5.96354e-016
lhumerus -41.1583 3.29157 81.5568
lradius 45.3234
lwrist 1.89637
lhand 5.58829 16.1508
lfingers 7.12502
lthumb 30.9309 43.5655
rfemur 3.6991 0.217156 29.1235
rtibia 16.8332
rfoot -20.7735 -25.2123
rtoes 4.02859
lfemur -23.0011 3.8232 -13.252
ltibia 35.3091
lfoot -11.5188 2.33003
ltoes 4.74385
31
root -31.6989 17.5901 -1.73303 -42.391 82.007 -43.1187
lowerback 17.1606 -1.61499 0.123046
upperback 8.59243 -1.47632 3.60648
thorax -0.341751 -0.591591 3.98373
lowerneck -2.63573 4.50154 -0.939247
upperneck 6.87213 6.50805 -5.33322
head 2.81548 3.06884 -1.33864
rclavicle -2.56432e-014 2.18663e-015
rhumerus -40.3882 22.4649 -81.4586
rradius 38.6579
rwrist 1.37986
rhand 4.94415 -19.1169
rfingers 7.12502
rthumb 30.3167 -46.6464
lclavicle -2.56432e-014 2.18663e-015
lhumerus -41.4069 3.17921 81.6046
lradius 45.4607
lwrist 1.95359
lhand 5.39062 15.9842
lfingers 7.12502
lthumb 30.7425 43.4344
rfemur 3.67361 0.235893 29.0894
rtibia 16.7584
rfoot -20.7684 -25.2219
rtoes 3.96451
lfemur -23.0835 3.89168 -13.3018
ltibia 35.3433
lfoot -11.5997 2.28598
ltoes 4.78041
32
root -31.6852 17.5919 -1.73799 -42.2477 82.017 -43.0759
lowerback 17.1663 -1.60327 0.0620604
upperback 8.60891 -1.47 3.59137
thorax -0.326083 -0.59007 4.00129
lowerneck -2.46442 4.51783 -0.852399
upperneck 6.50338 6.50055 -5.39505
head 2.66549 3.07615 -1.37969
rclavicle -2.42517e-014 -1.19271e-015
rhumerus -40.5141 22.2858 -81.3938
rradius 38.6706
rwrist 1.36879
rhand 3.51188 -18.8737
rfingers 7.12502
rthumb 28.9496 -46.6461
lclavicle -2.42517e-014 -1.19271e-015
lhumerus -41.6648 3.08844 81.6329
lradius 45.5981
lwrist 1.98159
lhand 5.16941 15.8317
lfingers 7.12502
lthumb 30.5316 43.3214
rfemur 3.64652 0.253057 29.055
rtibia 16.6819
rfoot -20.7585 -25.226
rtoes 3.8911
lfemur -23.1666 3.97568 -13.3514
ltibia 35.3771
lfoot -11.687 2.23163
ltoes 4.80518
